<svg xmlns="http://www.w3.org/2000/svg" width="1200" height="330" viewBox="0 0 1200 330" role="img" aria-label="Animated research interests map">
<defs>
<linearGradient id="bg" x1="0" y1="0" x2="1" y2="1">
<stop offset="0" stop-color="#0b0e14"/><stop offset="1" stop-color="#11151d"/>
</linearGradient>
<radialGradient id="glow"><stop stop-color="#c89bad" stop-opacity=".14"/><stop offset="1" stop-color="#c89bad" stop-opacity="0"/></radialGradient>
<filter id="grain"><feTurbulence type="fractalNoise" baseFrequency=".72" numOctaves="3" seed="11"/><feColorMatrix values="1 0 0 0 0 0 1 0 0 0 0 0 1 0 0 0 0 0 .055 0"/><feBlend in="SourceGraphic" mode="screen"/></filter>
<style>
@keyframes pulse{0%,100%{opacity:.42;transform:scale(.86)}50%{opacity:1;transform:scale(1.12)}}
@keyframes flow{to{stroke-dashoffset:-42}}
@keyframes shimmer{0%,100%{opacity:.3}50%{opacity:1}}
@keyframes radar{0%{opacity:.8;transform:scale(.72)}75%,100%{opacity:0;transform:scale(1.18)}}
@keyframes bar{0%,100%{transform:scaleX(.45);opacity:.5}50%{transform:scaleX(1);opacity:1}}
@keyframes orbit{to{transform:rotate(360deg)}}
@keyframes float{0%,100%{transform:translateY(-3px)}50%{transform:translateY(4px)}}
@keyframes signal{0%,100%{opacity:.28}45%,55%{opacity:1}}
.pulse{animation:pulse 2.4s ease-in-out infinite;transform-box:fill-box;transform-origin:center}
.flow{stroke-dasharray:7 10;animation:flow 2.2s linear infinite}
.shimmer{animation:shimmer 2.8s ease-in-out infinite}
.radar{animation:radar 3.2s ease-out infinite;transform-box:fill-box;transform-origin:center}
.bar{animation:bar 3s ease-in-out infinite;transform-box:fill-box;transform-origin:left center}
.orbit{animation:orbit 18s linear infinite;transform-box:fill-box;transform-origin:center}
.float{animation:float 4.2s ease-in-out infinite;transform-box:fill-box;transform-origin:center}
.signal{animation:signal 2.6s ease-in-out infinite}
@media(prefers-reduced-motion:reduce){.pulse,.flow,.shimmer,.radar,.bar,.orbit,.float,.signal{animation:none!important}}
</style>
</defs>
<rect width="1200" height="330" rx="18" fill="url(#bg)"/>
<rect x="1" y="1" width="1198" height="328" rx="17" fill="none" stroke="#303744" stroke-width="2"/>
<rect width="1200" height="330" rx="18" fill="transparent" filter="url(#grain)"/>
<path d="M386 34V296M40 72H346" stroke="#303744"/>
<text x="40" y="54" fill="#cf9caf" font-family="ui-monospace,SFMono-Regular,Consolas,monospace" font-size="14" font-weight="700" text-anchor="start" letter-spacing="1.3">RESEARCH SIGNAL / ACTIVE</text>
<text x="40" y="132" fill="#f3eef1" font-family="Georgia,serif" font-size="40" font-weight="700" text-anchor="start" letter-spacing="0">Perceive.</text>
<text x="40" y="175" fill="#f3eef1" font-family="Georgia,serif" font-size="40" font-weight="700" text-anchor="start" letter-spacing="0">Reason. Act.</text>
<text x="40" y="222" fill="#89919f" font-family="Inter,Segoe UI,sans-serif" font-size="14" font-weight="400" text-anchor="start" letter-spacing="0">Systems that connect visual understanding,</text>
<text x="40" y="244" fill="#89919f" font-family="Inter,Segoe UI,sans-serif" font-size="14" font-weight="400" text-anchor="start" letter-spacing="0">language-conditioned goals, and control.</text>
<text x="40" y="290" fill="#a8afbb" font-family="ui-monospace,SFMono-Regular,Consolas,monospace" font-size="12" font-weight="600" text-anchor="start" letter-spacing="0">MEMORY  →  PLANNING  →  SKILLS</text>
<g fill="none" stroke="#303744" opacity=".8">
<path d="M404 24H1172M404 306H1172"/><path d="M414 34v14M1158 34v14M414 282v14M1158 282v14"/>
</g>
<g class="flow" fill="none" stroke="#8f6d7c" opacity=".72">
<path d="M670 80C714 82 738 130 773 151M930 80C872 83 850 130 807 151"/>
<path d="M670 250C714 248 738 200 773 178M930 250C872 248 850 201 807 178"/>
</g>
<circle cx="790" cy="165" r="126" fill="url(#glow)"/>
<g class="orbit" fill="none" stroke="#8f6d7c" opacity=".74">
<ellipse cx="790" cy="165" rx="100" ry="44"/><ellipse cx="790" cy="165" rx="48" ry="103" transform="rotate(33 790 165)"/><ellipse cx="790" cy="165" rx="30" ry="86" transform="rotate(-47 790 165)"/>
</g>
<g fill="#0f141d" stroke="#cf9caf" stroke-width="1.5">
<circle cx="890" cy="165" r="6"/><circle cx="754" cy="69" r="5"/><circle cx="723" cy="220" r="5"/>
</g>
<circle class="pulse" cx="890" cy="165" r="2.5" fill="#78d6c6"/>
<circle class="pulse" style="animation-delay:.8s" cx="754" cy="69" r="2" fill="#cf9caf"/>
<circle class="radar" cx="790" cy="165" r="49" fill="none" stroke="#cf9caf"/>
<circle cx="790" cy="165" r="34" fill="#111722" stroke="#cf9caf" stroke-width="1.5"/>
<circle cx="790" cy="165" r="25" fill="none" stroke="#596273"/>
<text x="790" y="160" fill="#f3eef1" font-family="ui-monospace,SFMono-Regular,Consolas,monospace" font-size="13" font-weight="700" text-anchor="middle" letter-spacing="1">AGENT</text>
<text x="790" y="180" fill="#89919f" font-family="ui-monospace,SFMono-Regular,Consolas,monospace" font-size="11" font-weight="600" text-anchor="middle" letter-spacing="0">CORE</text>
<g fill="#cf9caf" opacity=".75">
<rect x="675" y="162" width="5" height="5" rx="1"/><rect x="900" y="162" width="5" height="5" rx="1"/>
<rect x="788" y="48" width="5" height="5" rx="1"/><rect x="788" y="277" width="5" height="5" rx="1"/>
</g>
<g class="float" style="animation-delay:0.0s">
<rect x="432" y="48" width="238" height="64" rx="11" fill="#121823" stroke="#465061"/>
<rect x="433" y="49" width="236" height="62" rx="10" fill="none" stroke="#232b38"/>
<rect class="signal" style="animation-delay:0.0s" x="432" y="48" width="5" height="64" rx="2" fill="#cf9caf"/>
<path d="M450 61h18M450 61v10M652 99h-18M652 99v-10" stroke="#596273"/>
<rect x="451" y="72" width="8" height="8" rx="2" fill="#cf9caf"/>
<text x="472" y="82" fill="#edf0f5" font-family="ui-monospace,SFMono-Regular,Consolas,monospace" font-size="12" font-weight="650" text-anchor="start" letter-spacing="0">EMBODIED INTELLIGENCE</text>
<text x="472" y="100" fill="#89919f" font-family="ui-monospace,SFMono-Regular,Consolas,monospace" font-size="9" font-weight="600" text-anchor="start" letter-spacing="0.45">PERCEPTION · CONTROL</text>
</g>
<g class="float" style="animation-delay:0.55s">
<rect x="930" y="48" width="238" height="64" rx="11" fill="#121823" stroke="#465061"/>
<rect x="931" y="49" width="236" height="62" rx="10" fill="none" stroke="#232b38"/>
<rect class="signal" style="animation-delay:0.55s" x="930" y="48" width="5" height="64" rx="2" fill="#cf9caf"/>
<path d="M948 61h18M948 61v10M1150 99h-18M1150 99v-10" stroke="#596273"/>
<rect x="949" y="72" width="8" height="8" rx="2" fill="#cf9caf"/>
<text x="970" y="82" fill="#edf0f5" font-family="ui-monospace,SFMono-Regular,Consolas,monospace" font-size="12" font-weight="650" text-anchor="start" letter-spacing="0">VISION–LANGUAGE–ACTION</text>
<text x="970" y="100" fill="#89919f" font-family="ui-monospace,SFMono-Regular,Consolas,monospace" font-size="9" font-weight="600" text-anchor="start" letter-spacing="0.45">VISION · LANGUAGE · ACTION</text>
</g>
<g class="float" style="animation-delay:1.1s">
<rect x="432" y="218" width="238" height="64" rx="11" fill="#121823" stroke="#465061"/>
<rect x="433" y="219" width="236" height="62" rx="10" fill="none" stroke="#232b38"/>
<rect class="signal" style="animation-delay:1.1s" x="432" y="218" width="5" height="64" rx="2" fill="#cf9caf"/>
<path d="M450 231h18M450 231v10M652 269h-18M652 269v-10" stroke="#596273"/>
<rect x="451" y="242" width="8" height="8" rx="2" fill="#cf9caf"/>
<text x="472" y="252" fill="#edf0f5" font-family="ui-monospace,SFMono-Regular,Consolas,monospace" font-size="12" font-weight="650" text-anchor="start" letter-spacing="0">ROBOT LEARNING</text>
<text x="472" y="270" fill="#89919f" font-family="ui-monospace,SFMono-Regular,Consolas,monospace" font-size="9" font-weight="600" text-anchor="start" letter-spacing="0.45">POLICY · DATA · REAL WORLD</text>
</g>
<g class="float" style="animation-delay:1.65s">
<rect x="930" y="218" width="238" height="64" rx="11" fill="#121823" stroke="#465061"/>
<rect x="931" y="219" width="236" height="62" rx="10" fill="none" stroke="#232b38"/>
<rect class="signal" style="animation-delay:1.65s" x="930" y="218" width="5" height="64" rx="2" fill="#cf9caf"/>
<path d="M948 231h18M948 231v10M1150 269h-18M1150 269v-10" stroke="#596273"/>
<rect x="949" y="242" width="8" height="8" rx="2" fill="#cf9caf"/>
<text x="970" y="252" fill="#edf0f5" font-family="ui-monospace,SFMono-Regular,Consolas,monospace" font-size="12" font-weight="650" text-anchor="start" letter-spacing="0">MULTIMODAL AGENTS</text>
<text x="970" y="270" fill="#89919f" font-family="ui-monospace,SFMono-Regular,Consolas,monospace" font-size="9" font-weight="600" text-anchor="start" letter-spacing="0.45">MEMORY · PLANNING · SKILLS</text>
</g>
</svg>
